<?xml version="1.0" standalone="no"?>
<!DOCTYPE svg PUBLIC "-//W3C//DTD SVG 20010904//EN"
 "http://www.w3.org/TR/2001/REC-SVG-20010904/DTD/svg10.dtd">
<svg version="1.0" xmlns="http://www.w3.org/2000/svg"
 width="256.000000pt" height="256.000000pt" viewBox="0 0 256.000000 256.000000"
 preserveAspectRatio="xMidYMid meet">
<metadata>
Created by potrace 1.11, written by Peter Selinger 2001-2013
</metadata>
<g transform="translate(0.000000,256.000000) scale(0.100000,-0.100000)"
fill="#000000" stroke="none">
<path d="M1203 2534 c-61 -12 -76 -18 -198 -74 -68 -31 -118 -48 -155 -52 -14
-2 -29 -6 -35 -10 -5 -3 -28 -9 -50 -13 -46 -8 -45 -7 -105 -24 -116 -33 -181
-92 -275 -251 -57 -96 -144 -213 -189 -255 -27 -24 -78 -97 -103 -146 -27 -52
-28 -58 -25 -194 5 -277 5 -322 -2 -436 -12 -185 5 -226 181 -434 45 -54 108
-142 139 -198 65 -113 140 -194 205 -221 24 -10 53 -22 64 -27 20 -8 144 -37
199 -46 31 -5 88 -26 171 -64 28 -12 52 -23 55 -24 3 0 32 -11 65 -24 109 -43
220 -30 380 44 102 47 182 72 278 89 180 31 267 96 374 278 54 92 130 195 184
249 43 43 102 132 119 180 16 46 18 72 14 169 -8 185 -8 320 0 395 22 205 -5
274 -182 470 -36 39 -92 111 -92 118 0 3 -26 47 -57 98 -82 134 -141 188 -240
221 -43 14 -96 29 -118 33 -43 8 -127 29 -160 40 -22 7 -35 13 -110 46 -99 44
-135 58 -140 58 -3 0 -19 2 -35 6 -55 12 -94 12 -157 -1z"/>
</g>
</svg>
